<?xml version="1.0" encoding="UTF-8"?>
<svg id="Layer_1" xmlns="http://www.w3.org/2000/svg" version="1.1" viewBox="0 0 512 512">
  <!-- Generator: Adobe Illustrator 29.3.0, SVG Export Plug-In . SVG Version: 2.1.0 Build 146)  -->
  <defs>
    <style>
      .st0 {
        fill: #ffb4c5;
      }
    </style>
  </defs>
  <path class="st0" d="M256,448c-6.4,0-12.7-1.9-18-5.6-78.6-53.4-112.6-89.9-131.4-112.8-40-48.8-59.2-98.8-58.6-153,.6-62.1,50.5-112.6,111.1-112.6s74.6,24.8,92.4,45.5c2.2,2.5,6,2.8,8.5.6.2-.2.4-.4.6-.6,17.8-20.7,48.3-45.5,92.4-45.5s110.4,50.5,111.1,112.6c.5,54.2-18.6,104.3-58.6,153-18.8,22.9-52.8,59.5-131.4,112.8-5.3,3.6-11.6,5.6-18,5.6Z"/>
</svg>